<?xml version="1.0" encoding="utf-8" standalone="no"?>
<!DOCTYPE svg PUBLIC "-//W3C//DTD SVG 1.1//EN"
  "http://www.w3.org/Graphics/SVG/1.1/DTD/svg11.dtd">
<svg xmlns:xlink="http://www.w3.org/1999/xlink" width="504pt" height="144pt" viewBox="0 0 504 144" xmlns="http://www.w3.org/2000/svg" version="1.1">
 <metadata>
  <rdf:RDF xmlns:dc="http://purl.org/dc/elements/1.1/" xmlns:cc="http://creativecommons.org/ns#" xmlns:rdf="http://www.w3.org/1999/02/22-rdf-syntax-ns#">
   <cc:Work>
    <dc:type rdf:resource="http://purl.org/dc/dcmitype/StillImage"/>
    <dc:date>2023-01-31T22:33:35.273239</dc:date>
    <dc:format>image/svg+xml</dc:format>
    <dc:creator>
     <cc:Agent>
      <dc:title>Matplotlib v3.5.1, https://matplotlib.org/</dc:title>
     </cc:Agent>
    </dc:creator>
   </cc:Work>
  </rdf:RDF>
 </metadata>
 <defs>
  <style type="text/css">*{stroke-linejoin: round; stroke-linecap: butt}</style>
 </defs>
 <g id="figure_1">
  <g id="patch_1">
   <path d="M 0 144 
L 504 144 
L 504 0 
L 0 0 
z
" style="fill: #ffffff"/>
  </g>
  <g id="axes_1">
   <g id="patch_2">
    <path d="M 38.255225 88.982117 
L 410.315 88.982117 
L 410.315 8.64 
L 38.255225 8.64 
z
" style="fill: #ffffff"/>
   </g>
   <g id="matplotlib.axis_1">
    <g id="xtick_1">
     <g id="line2d_1">
      <defs>
       <path id="me8de3cc27f" d="M 0 0 
L 0 3.5 
" style="stroke: #000000; stroke-width: 0.8"/>
      </defs>
      <g>
       <use xlink:href="#me8de3cc27f" x="63.91452" y="88.982117" style="stroke: #000000; stroke-width: 0.8"/>
      </g>
     </g>
     <g id="text_1">
      <!-- Ackermann -->
      <g transform="translate(34.374117 119.451638)rotate(-30)scale(0.08 -0.08)">
       <defs>
        <path id="TimesNewRomanPSMT-41" d="M 2928 1419 
L 1288 1419 
L 1000 750 
Q 894 503 894 381 
Q 894 284 986 211 
Q 1078 138 1384 116 
L 1384 0 
L 50 0 
L 50 116 
Q 316 163 394 238 
Q 553 388 747 847 
L 2238 4334 
L 2347 4334 
L 3822 809 
Q 4000 384 4145 257 
Q 4291 131 4550 116 
L 4550 0 
L 2878 0 
L 2878 116 
Q 3131 128 3220 200 
Q 3309 272 3309 375 
Q 3309 513 3184 809 
L 2928 1419 
z
M 2841 1650 
L 2122 3363 
L 1384 1650 
L 2841 1650 
z
" transform="scale(0.015625)"/>
        <path id="TimesNewRomanPSMT-63" d="M 2631 1088 
Q 2516 522 2178 217 
Q 1841 -88 1431 -88 
Q 944 -88 581 321 
Q 219 731 219 1428 
Q 219 2103 620 2525 
Q 1022 2947 1584 2947 
Q 2006 2947 2278 2723 
Q 2550 2500 2550 2259 
Q 2550 2141 2473 2067 
Q 2397 1994 2259 1994 
Q 2075 1994 1981 2113 
Q 1928 2178 1911 2362 
Q 1894 2547 1784 2644 
Q 1675 2738 1481 2738 
Q 1169 2738 978 2506 
Q 725 2200 725 1697 
Q 725 1184 976 792 
Q 1228 400 1656 400 
Q 1963 400 2206 609 
Q 2378 753 2541 1131 
L 2631 1088 
z
" transform="scale(0.015625)"/>
        <path id="TimesNewRomanPSMT-6b" d="M 1047 4444 
L 1047 1594 
L 1775 2259 
Q 2006 2472 2044 2528 
Q 2069 2566 2069 2603 
Q 2069 2666 2017 2711 
Q 1966 2756 1847 2763 
L 1847 2863 
L 3091 2863 
L 3091 2763 
Q 2834 2756 2664 2684 
Q 2494 2613 2291 2428 
L 1556 1750 
L 2291 822 
Q 2597 438 2703 334 
Q 2853 188 2966 144 
Q 3044 113 3238 113 
L 3238 0 
L 1847 0 
L 1847 113 
Q 1966 116 2008 148 
Q 2050 181 2050 241 
Q 2050 313 1925 472 
L 1047 1594 
L 1047 644 
Q 1047 366 1086 278 
Q 1125 191 1197 153 
Q 1269 116 1509 113 
L 1509 0 
L 53 0 
L 53 113 
Q 272 113 381 166 
Q 447 200 481 272 
Q 528 375 528 628 
L 528 3234 
Q 528 3731 506 3842 
Q 484 3953 434 3995 
Q 384 4038 303 4038 
Q 238 4038 106 3984 
L 53 4094 
L 903 4444 
L 1047 4444 
z
" transform="scale(0.015625)"/>
        <path id="TimesNewRomanPSMT-65" d="M 681 1784 
Q 678 1147 991 784 
Q 1303 422 1725 422 
Q 2006 422 2214 576 
Q 2422 731 2563 1106 
L 2659 1044 
Q 2594 616 2278 264 
Q 1963 -88 1488 -88 
Q 972 -88 605 314 
Q 238 716 238 1394 
Q 238 2128 614 2539 
Q 991 2950 1559 2950 
Q 2041 2950 2350 2633 
Q 2659 2316 2659 1784 
L 681 1784 
z
M 681 1966 
L 2006 1966 
Q 1991 2241 1941 2353 
Q 1863 2528 1708 2628 
Q 1553 2728 1384 2728 
Q 1125 2728 920 2526 
Q 716 2325 681 1966 
z
" transform="scale(0.015625)"/>
        <path id="TimesNewRomanPSMT-72" d="M 1038 2947 
L 1038 2303 
Q 1397 2947 1775 2947 
Q 1947 2947 2059 2842 
Q 2172 2738 2172 2600 
Q 2172 2478 2090 2393 
Q 2009 2309 1897 2309 
Q 1788 2309 1652 2417 
Q 1516 2525 1450 2525 
Q 1394 2525 1328 2463 
Q 1188 2334 1038 2041 
L 1038 669 
Q 1038 431 1097 309 
Q 1138 225 1241 169 
Q 1344 113 1538 113 
L 1538 0 
L 72 0 
L 72 113 
Q 291 113 397 181 
Q 475 231 506 341 
Q 522 394 522 644 
L 522 1753 
Q 522 2253 501 2348 
Q 481 2444 426 2487 
Q 372 2531 291 2531 
Q 194 2531 72 2484 
L 41 2597 
L 906 2947 
L 1038 2947 
z
" transform="scale(0.015625)"/>
        <path id="TimesNewRomanPSMT-6d" d="M 1050 2338 
Q 1363 2650 1419 2697 
Q 1559 2816 1721 2881 
Q 1884 2947 2044 2947 
Q 2313 2947 2506 2790 
Q 2700 2634 2766 2338 
Q 3088 2713 3309 2830 
Q 3531 2947 3766 2947 
Q 3994 2947 4170 2830 
Q 4347 2713 4450 2447 
Q 4519 2266 4519 1878 
L 4519 647 
Q 4519 378 4559 278 
Q 4591 209 4675 161 
Q 4759 113 4950 113 
L 4950 0 
L 3538 0 
L 3538 113 
L 3597 113 
Q 3781 113 3884 184 
Q 3956 234 3988 344 
Q 4000 397 4000 647 
L 4000 1878 
Q 4000 2228 3916 2372 
Q 3794 2572 3525 2572 
Q 3359 2572 3192 2489 
Q 3025 2406 2788 2181 
L 2781 2147 
L 2788 2013 
L 2788 647 
Q 2788 353 2820 281 
Q 2853 209 2943 161 
Q 3034 113 3253 113 
L 3253 0 
L 1806 0 
L 1806 113 
Q 2044 113 2133 169 
Q 2222 225 2256 338 
Q 2272 391 2272 647 
L 2272 1878 
Q 2272 2228 2169 2381 
Q 2031 2581 1784 2581 
Q 1616 2581 1450 2491 
Q 1191 2353 1050 2181 
L 1050 647 
Q 1050 366 1089 281 
Q 1128 197 1204 155 
Q 1281 113 1516 113 
L 1516 0 
L 100 0 
L 100 113 
Q 297 113 375 155 
Q 453 197 493 289 
Q 534 381 534 647 
L 534 1741 
Q 534 2213 506 2350 
Q 484 2453 437 2492 
Q 391 2531 309 2531 
Q 222 2531 100 2484 
L 53 2597 
L 916 2947 
L 1050 2947 
L 1050 2338 
z
" transform="scale(0.015625)"/>
        <path id="TimesNewRomanPSMT-61" d="M 1822 413 
Q 1381 72 1269 19 
Q 1100 -59 909 -59 
Q 613 -59 420 144 
Q 228 347 228 678 
Q 228 888 322 1041 
Q 450 1253 767 1440 
Q 1084 1628 1822 1897 
L 1822 2009 
Q 1822 2438 1686 2597 
Q 1550 2756 1291 2756 
Q 1094 2756 978 2650 
Q 859 2544 859 2406 
L 866 2225 
Q 866 2081 792 2003 
Q 719 1925 600 1925 
Q 484 1925 411 2006 
Q 338 2088 338 2228 
Q 338 2497 613 2722 
Q 888 2947 1384 2947 
Q 1766 2947 2009 2819 
Q 2194 2722 2281 2516 
Q 2338 2381 2338 1966 
L 2338 994 
Q 2338 584 2353 492 
Q 2369 400 2405 369 
Q 2441 338 2488 338 
Q 2538 338 2575 359 
Q 2641 400 2828 588 
L 2828 413 
Q 2478 -56 2159 -56 
Q 2006 -56 1915 50 
Q 1825 156 1822 413 
z
M 1822 616 
L 1822 1706 
Q 1350 1519 1213 1441 
Q 966 1303 859 1153 
Q 753 1003 753 825 
Q 753 600 887 451 
Q 1022 303 1197 303 
Q 1434 303 1822 616 
z
" transform="scale(0.015625)"/>
        <path id="TimesNewRomanPSMT-6e" d="M 1034 2341 
Q 1538 2947 1994 2947 
Q 2228 2947 2397 2830 
Q 2566 2713 2666 2444 
Q 2734 2256 2734 1869 
L 2734 647 
Q 2734 375 2778 278 
Q 2813 200 2889 156 
Q 2966 113 3172 113 
L 3172 0 
L 1756 0 
L 1756 113 
L 1816 113 
Q 2016 113 2095 173 
Q 2175 234 2206 353 
Q 2219 400 2219 647 
L 2219 1819 
Q 2219 2209 2117 2386 
Q 2016 2563 1775 2563 
Q 1403 2563 1034 2156 
L 1034 647 
Q 1034 356 1069 288 
Q 1113 197 1189 155 
Q 1266 113 1500 113 
L 1500 0 
L 84 0 
L 84 113 
L 147 113 
Q 366 113 442 223 
Q 519 334 519 647 
L 519 1709 
Q 519 2225 495 2337 
Q 472 2450 423 2490 
Q 375 2531 294 2531 
Q 206 2531 84 2484 
L 38 2597 
L 900 2947 
L 1034 2947 
L 1034 2341 
z
" transform="scale(0.015625)"/>
       </defs>
       <use xlink:href="#TimesNewRomanPSMT-41"/>
       <use xlink:href="#TimesNewRomanPSMT-63" x="72.216797"/>
       <use xlink:href="#TimesNewRomanPSMT-6b" x="116.601562"/>
       <use xlink:href="#TimesNewRomanPSMT-65" x="166.601562"/>
       <use xlink:href="#TimesNewRomanPSMT-72" x="210.986328"/>
       <use xlink:href="#TimesNewRomanPSMT-6d" x="244.287109"/>
       <use xlink:href="#TimesNewRomanPSMT-61" x="322.070312"/>
       <use xlink:href="#TimesNewRomanPSMT-6e" x="366.455078"/>
       <use xlink:href="#TimesNewRomanPSMT-6e" x="416.455078"/>
      </g>
     </g>
    </g>
    <g id="xtick_2">
     <g id="line2d_2">
      <g>
       <use xlink:href="#me8de3cc27f" x="93.072809" y="88.982117" style="stroke: #000000; stroke-width: 0.8"/>
      </g>
     </g>
     <g id="text_2">
      <!-- Bellman Ford -->
      <g transform="translate(57.555749 122.902263)rotate(-30)scale(0.08 -0.08)">
       <defs>
        <path id="TimesNewRomanPSMT-42" d="M 2956 2163 
Q 3397 2069 3616 1863 
Q 3919 1575 3919 1159 
Q 3919 844 3719 555 
Q 3519 266 3170 133 
Q 2822 0 2106 0 
L 106 0 
L 106 116 
L 266 116 
Q 531 116 647 284 
Q 719 394 719 750 
L 719 3488 
Q 719 3881 628 3984 
Q 506 4122 266 4122 
L 106 4122 
L 106 4238 
L 1938 4238 
Q 2450 4238 2759 4163 
Q 3228 4050 3475 3764 
Q 3722 3478 3722 3106 
Q 3722 2788 3528 2536 
Q 3334 2284 2956 2163 
z
M 1319 2331 
Q 1434 2309 1582 2298 
Q 1731 2288 1909 2288 
Q 2366 2288 2595 2386 
Q 2825 2484 2947 2687 
Q 3069 2891 3069 3131 
Q 3069 3503 2766 3765 
Q 2463 4028 1881 4028 
Q 1569 4028 1319 3959 
L 1319 2331 
z
M 1319 306 
Q 1681 222 2034 222 
Q 2600 222 2897 476 
Q 3194 731 3194 1106 
Q 3194 1353 3059 1581 
Q 2925 1809 2622 1940 
Q 2319 2072 1872 2072 
Q 1678 2072 1540 2065 
Q 1403 2059 1319 2044 
L 1319 306 
z
" transform="scale(0.015625)"/>
        <path id="TimesNewRomanPSMT-6c" d="M 1184 4444 
L 1184 647 
Q 1184 378 1223 290 
Q 1263 203 1344 158 
Q 1425 113 1647 113 
L 1647 0 
L 244 0 
L 244 113 
Q 441 113 512 153 
Q 584 194 625 287 
Q 666 381 666 647 
L 666 3247 
Q 666 3731 644 3842 
Q 622 3953 573 3993 
Q 525 4034 450 4034 
Q 369 4034 244 3984 
L 191 4094 
L 1044 4444 
L 1184 4444 
z
" transform="scale(0.015625)"/>
        <path id="TimesNewRomanPSMT-20" transform="scale(0.015625)"/>
        <path id="TimesNewRomanPSMT-46" d="M 1309 4006 
L 1309 2341 
L 2081 2341 
Q 2347 2341 2470 2458 
Q 2594 2575 2634 2922 
L 2750 2922 
L 2750 1488 
L 2634 1488 
Q 2631 1734 2570 1850 
Q 2509 1966 2401 2023 
Q 2294 2081 2081 2081 
L 1309 2081 
L 1309 750 
Q 1309 428 1350 325 
Q 1381 247 1481 191 
Q 1619 116 1769 116 
L 1922 116 
L 1922 0 
L 103 0 
L 103 116 
L 253 116 
Q 516 116 634 269 
Q 709 369 709 750 
L 709 3488 
Q 709 3809 669 3913 
Q 638 3991 541 4047 
Q 406 4122 253 4122 
L 103 4122 
L 103 4238 
L 3256 4238 
L 3297 3306 
L 3188 3306 
Q 3106 3603 2998 3742 
Q 2891 3881 2733 3943 
Q 2575 4006 2244 4006 
L 1309 4006 
z
" transform="scale(0.015625)"/>
        <path id="TimesNewRomanPSMT-6f" d="M 1600 2947 
Q 2250 2947 2644 2453 
Q 2978 2031 2978 1484 
Q 2978 1100 2793 706 
Q 2609 313 2286 112 
Q 1963 -88 1566 -88 
Q 919 -88 538 428 
Q 216 863 216 1403 
Q 216 1797 411 2186 
Q 606 2575 925 2761 
Q 1244 2947 1600 2947 
z
M 1503 2744 
Q 1338 2744 1170 2645 
Q 1003 2547 900 2300 
Q 797 2053 797 1666 
Q 797 1041 1045 587 
Q 1294 134 1700 134 
Q 2003 134 2200 384 
Q 2397 634 2397 1244 
Q 2397 2006 2069 2444 
Q 1847 2744 1503 2744 
z
" transform="scale(0.015625)"/>
        <path id="TimesNewRomanPSMT-64" d="M 2222 322 
Q 2013 103 1813 7 
Q 1613 -88 1381 -88 
Q 913 -88 563 304 
Q 213 697 213 1313 
Q 213 1928 600 2439 
Q 988 2950 1597 2950 
Q 1975 2950 2222 2709 
L 2222 3238 
Q 2222 3728 2198 3840 
Q 2175 3953 2125 3993 
Q 2075 4034 2000 4034 
Q 1919 4034 1784 3984 
L 1744 4094 
L 2597 4444 
L 2738 4444 
L 2738 1134 
Q 2738 631 2761 520 
Q 2784 409 2836 365 
Q 2888 322 2956 322 
Q 3041 322 3181 375 
L 3216 266 
L 2366 -88 
L 2222 -88 
L 2222 322 
z
M 2222 541 
L 2222 2016 
Q 2203 2228 2109 2403 
Q 2016 2578 1861 2667 
Q 1706 2756 1559 2756 
Q 1284 2756 1069 2509 
Q 784 2184 784 1559 
Q 784 928 1059 592 
Q 1334 256 1672 256 
Q 1956 256 2222 541 
z
" transform="scale(0.015625)"/>
       </defs>
       <use xlink:href="#TimesNewRomanPSMT-42"/>
       <use xlink:href="#TimesNewRomanPSMT-65" x="66.699219"/>
       <use xlink:href="#TimesNewRomanPSMT-6c" x="111.083984"/>
       <use xlink:href="#TimesNewRomanPSMT-6c" x="138.867188"/>
       <use xlink:href="#TimesNewRomanPSMT-6d" x="166.650391"/>
       <use xlink:href="#TimesNewRomanPSMT-61" x="244.433594"/>
       <use xlink:href="#TimesNewRomanPSMT-6e" x="288.818359"/>
       <use xlink:href="#TimesNewRomanPSMT-20" x="338.818359"/>
       <use xlink:href="#TimesNewRomanPSMT-46" x="363.818359"/>
       <use xlink:href="#TimesNewRomanPSMT-6f" x="419.433594"/>
       <use xlink:href="#TimesNewRomanPSMT-72" x="469.433594"/>
       <use xlink:href="#TimesNewRomanPSMT-64" x="502.734375"/>
      </g>
     </g>
    </g>
    <g id="xtick_3">
     <g id="line2d_3">
      <g>
       <use xlink:href="#me8de3cc27f" x="122.231099" y="88.982117" style="stroke: #000000; stroke-width: 0.8"/>
      </g>
     </g>
     <g id="text_3">
      <!-- Dijkstra -->
      <g transform="translate(102.689752 113.683011)rotate(-30)scale(0.08 -0.08)">
       <defs>
        <path id="TimesNewRomanPSMT-44" d="M 109 0 
L 109 116 
L 269 116 
Q 538 116 650 288 
Q 719 391 719 750 
L 719 3488 
Q 719 3884 631 3984 
Q 509 4122 269 4122 
L 109 4122 
L 109 4238 
L 1834 4238 
Q 2784 4238 3279 4022 
Q 3775 3806 4076 3303 
Q 4378 2800 4378 2141 
Q 4378 1256 3841 663 
Q 3238 0 2003 0 
L 109 0 
z
M 1319 306 
Q 1716 219 1984 219 
Q 2709 219 3187 728 
Q 3666 1238 3666 2109 
Q 3666 2988 3187 3494 
Q 2709 4000 1959 4000 
Q 1678 4000 1319 3909 
L 1319 306 
z
" transform="scale(0.015625)"/>
        <path id="TimesNewRomanPSMT-69" d="M 928 4444 
Q 1059 4444 1151 4351 
Q 1244 4259 1244 4128 
Q 1244 3997 1151 3903 
Q 1059 3809 928 3809 
Q 797 3809 703 3903 
Q 609 3997 609 4128 
Q 609 4259 701 4351 
Q 794 4444 928 4444 
z
M 1188 2947 
L 1188 647 
Q 1188 378 1227 289 
Q 1266 200 1342 156 
Q 1419 113 1622 113 
L 1622 0 
L 231 0 
L 231 113 
Q 441 113 512 153 
Q 584 194 626 287 
Q 669 381 669 647 
L 669 1750 
Q 669 2216 641 2353 
Q 619 2453 572 2492 
Q 525 2531 444 2531 
Q 356 2531 231 2484 
L 188 2597 
L 1050 2947 
L 1188 2947 
z
" transform="scale(0.015625)"/>
        <path id="TimesNewRomanPSMT-6a" d="M 925 4447 
Q 1059 4447 1153 4353 
Q 1247 4259 1247 4125 
Q 1247 3994 1153 3900 
Q 1059 3806 925 3806 
Q 794 3806 700 3900 
Q 606 3994 606 4125 
Q 606 4259 700 4353 
Q 794 4447 925 4447 
z
M 1194 2947 
L 1194 66 
Q 1194 -669 881 -1025 
Q 569 -1381 69 -1381 
Q -216 -1381 -353 -1278 
Q -491 -1175 -491 -1066 
Q -491 -956 -414 -878 
Q -338 -800 -234 -800 
Q -153 -800 -69 -841 
Q -16 -863 136 -998 
Q 288 -1134 391 -1134 
Q 466 -1134 537 -1076 
Q 609 -1019 643 -883 
Q 678 -747 678 -294 
L 678 1744 
Q 678 2216 650 2350 
Q 628 2453 581 2492 
Q 534 2531 453 2531 
Q 366 2531 241 2484 
L 197 2597 
L 1059 2947 
L 1194 2947 
z
" transform="scale(0.015625)"/>
        <path id="TimesNewRomanPSMT-73" d="M 2050 2947 
L 2050 1972 
L 1947 1972 
Q 1828 2431 1642 2597 
Q 1456 2763 1169 2763 
Q 950 2763 815 2647 
Q 681 2531 681 2391 
Q 681 2216 781 2091 
Q 878 1963 1175 1819 
L 1631 1597 
Q 2266 1288 2266 781 
Q 2266 391 1970 151 
Q 1675 -88 1309 -88 
Q 1047 -88 709 6 
Q 606 38 541 38 
Q 469 38 428 -44 
L 325 -44 
L 325 978 
L 428 978 
Q 516 541 762 319 
Q 1009 97 1316 97 
Q 1531 97 1667 223 
Q 1803 350 1803 528 
Q 1803 744 1651 891 
Q 1500 1038 1047 1263 
Q 594 1488 453 1669 
Q 313 1847 313 2119 
Q 313 2472 555 2709 
Q 797 2947 1181 2947 
Q 1350 2947 1591 2875 
Q 1750 2828 1803 2828 
Q 1853 2828 1881 2850 
Q 1909 2872 1947 2947 
L 2050 2947 
z
" transform="scale(0.015625)"/>
        <path id="TimesNewRomanPSMT-74" d="M 1031 3803 
L 1031 2863 
L 1700 2863 
L 1700 2644 
L 1031 2644 
L 1031 788 
Q 1031 509 1111 412 
Q 1191 316 1316 316 
Q 1419 316 1516 380 
Q 1613 444 1666 569 
L 1788 569 
Q 1678 263 1478 108 
Q 1278 -47 1066 -47 
Q 922 -47 784 33 
Q 647 113 581 261 
Q 516 409 516 719 
L 516 2644 
L 63 2644 
L 63 2747 
Q 234 2816 414 2980 
Q 594 3144 734 3369 
Q 806 3488 934 3803 
L 1031 3803 
z
" transform="scale(0.015625)"/>
       </defs>
       <use xlink:href="#TimesNewRomanPSMT-44"/>
       <use xlink:href="#TimesNewRomanPSMT-69" x="72.216797"/>
       <use xlink:href="#TimesNewRomanPSMT-6a" x="100"/>
       <use xlink:href="#TimesNewRomanPSMT-6b" x="127.783203"/>
       <use xlink:href="#TimesNewRomanPSMT-73" x="177.783203"/>
       <use xlink:href="#TimesNewRomanPSMT-74" x="216.699219"/>
       <use xlink:href="#TimesNewRomanPSMT-72" x="244.482422"/>
       <use xlink:href="#TimesNewRomanPSMT-61" x="277.783203"/>
      </g>
     </g>
    </g>
    <g id="xtick_4">
     <g id="line2d_4">
      <g>
       <use xlink:href="#me8de3cc27f" x="151.389389" y="88.982117" style="stroke: #000000; stroke-width: 0.8"/>
      </g>
     </g>
     <g id="text_4">
      <!-- Euler -->
      <g transform="translate(139.164081 109.454763)rotate(-30)scale(0.08 -0.08)">
       <defs>
        <path id="TimesNewRomanPSMT-45" d="M 1338 4006 
L 1338 2331 
L 2269 2331 
Q 2631 2331 2753 2441 
Q 2916 2584 2934 2947 
L 3050 2947 
L 3050 1472 
L 2934 1472 
Q 2891 1781 2847 1869 
Q 2791 1978 2662 2040 
Q 2534 2103 2269 2103 
L 1338 2103 
L 1338 706 
Q 1338 425 1363 364 
Q 1388 303 1450 267 
Q 1513 231 1688 231 
L 2406 231 
Q 2766 231 2928 281 
Q 3091 331 3241 478 
Q 3434 672 3638 1063 
L 3763 1063 
L 3397 0 
L 131 0 
L 131 116 
L 281 116 
Q 431 116 566 188 
Q 666 238 702 338 
Q 738 438 738 747 
L 738 3500 
Q 738 3903 656 3997 
Q 544 4122 281 4122 
L 131 4122 
L 131 4238 
L 3397 4238 
L 3444 3309 
L 3322 3309 
Q 3256 3644 3176 3769 
Q 3097 3894 2941 3959 
Q 2816 4006 2500 4006 
L 1338 4006 
z
" transform="scale(0.015625)"/>
        <path id="TimesNewRomanPSMT-75" d="M 2709 2863 
L 2709 1128 
Q 2709 631 2732 520 
Q 2756 409 2807 365 
Q 2859 322 2928 322 
Q 3025 322 3147 375 
L 3191 266 
L 2334 -88 
L 2194 -88 
L 2194 519 
Q 1825 119 1631 15 
Q 1438 -88 1222 -88 
Q 981 -88 804 51 
Q 628 191 559 409 
Q 491 628 491 1028 
L 491 2306 
Q 491 2509 447 2587 
Q 403 2666 317 2708 
Q 231 2750 6 2747 
L 6 2863 
L 1009 2863 
L 1009 947 
Q 1009 547 1148 422 
Q 1288 297 1484 297 
Q 1619 297 1789 381 
Q 1959 466 2194 703 
L 2194 2325 
Q 2194 2569 2105 2655 
Q 2016 2741 1734 2747 
L 1734 2863 
L 2709 2863 
z
" transform="scale(0.015625)"/>
       </defs>
       <use xlink:href="#TimesNewRomanPSMT-45"/>
       <use xlink:href="#TimesNewRomanPSMT-75" x="61.083984"/>
       <use xlink:href="#TimesNewRomanPSMT-6c" x="111.083984"/>
       <use xlink:href="#TimesNewRomanPSMT-65" x="138.867188"/>
       <use xlink:href="#TimesNewRomanPSMT-72" x="183.251953"/>
      </g>
     </g>
    </g>
    <g id="xtick_5">
     <g id="line2d_5">
      <g>
       <use xlink:href="#me8de3cc27f" x="180.547678" y="88.982117" style="stroke: #000000; stroke-width: 0.8"/>
      </g>
     </g>
     <g id="text_5">
      <!-- Midpoint Explicit -->
      <g transform="translate(133.86755 129.347263)rotate(-30)scale(0.08 -0.08)">
       <defs>
        <path id="TimesNewRomanPSMT-4d" d="M 2619 0 
L 981 3566 
L 981 734 
Q 981 344 1066 247 
Q 1181 116 1431 116 
L 1581 116 
L 1581 0 
L 106 0 
L 106 116 
L 256 116 
Q 525 116 638 278 
Q 706 378 706 734 
L 706 3503 
Q 706 3784 644 3909 
Q 600 4000 483 4061 
Q 366 4122 106 4122 
L 106 4238 
L 1306 4238 
L 2844 922 
L 4356 4238 
L 5556 4238 
L 5556 4122 
L 5409 4122 
Q 5138 4122 5025 3959 
Q 4956 3859 4956 3503 
L 4956 734 
Q 4956 344 5044 247 
Q 5159 116 5409 116 
L 5556 116 
L 5556 0 
L 3756 0 
L 3756 116 
L 3906 116 
Q 4178 116 4288 278 
Q 4356 378 4356 734 
L 4356 3566 
L 2722 0 
L 2619 0 
z
" transform="scale(0.015625)"/>
        <path id="TimesNewRomanPSMT-70" d="M -6 2578 
L 875 2934 
L 994 2934 
L 994 2266 
Q 1216 2644 1439 2795 
Q 1663 2947 1909 2947 
Q 2341 2947 2628 2609 
Q 2981 2197 2981 1534 
Q 2981 794 2556 309 
Q 2206 -88 1675 -88 
Q 1444 -88 1275 -22 
Q 1150 25 994 166 
L 994 -706 
Q 994 -1000 1030 -1079 
Q 1066 -1159 1155 -1206 
Q 1244 -1253 1478 -1253 
L 1478 -1369 
L -22 -1369 
L -22 -1253 
L 56 -1253 
Q 228 -1256 350 -1188 
Q 409 -1153 442 -1076 
Q 475 -1000 475 -688 
L 475 2019 
Q 475 2297 450 2372 
Q 425 2447 370 2484 
Q 316 2522 222 2522 
Q 147 2522 31 2478 
L -6 2578 
z
M 994 2081 
L 994 1013 
Q 994 666 1022 556 
Q 1066 375 1236 237 
Q 1406 100 1666 100 
Q 1978 100 2172 344 
Q 2425 663 2425 1241 
Q 2425 1897 2138 2250 
Q 1938 2494 1663 2494 
Q 1513 2494 1366 2419 
Q 1253 2363 994 2081 
z
" transform="scale(0.015625)"/>
        <path id="TimesNewRomanPSMT-78" d="M 84 2863 
L 1431 2863 
L 1431 2747 
Q 1303 2747 1251 2703 
Q 1200 2659 1200 2588 
Q 1200 2513 1309 2356 
Q 1344 2306 1413 2200 
L 1616 1875 
L 1850 2200 
Q 2075 2509 2075 2591 
Q 2075 2656 2022 2701 
Q 1969 2747 1850 2747 
L 1850 2863 
L 2819 2863 
L 2819 2747 
Q 2666 2738 2553 2663 
Q 2400 2556 2134 2200 
L 1744 1678 
L 2456 653 
Q 2719 275 2831 198 
Q 2944 122 3122 113 
L 3122 0 
L 1772 0 
L 1772 113 
Q 1913 113 1991 175 
Q 2050 219 2050 291 
Q 2050 363 1850 653 
L 1431 1266 
L 972 653 
Q 759 369 759 316 
Q 759 241 829 180 
Q 900 119 1041 113 
L 1041 0 
L 106 0 
L 106 113 
Q 219 128 303 191 
Q 422 281 703 653 
L 1303 1450 
L 759 2238 
Q 528 2575 401 2661 
Q 275 2747 84 2747 
L 84 2863 
z
" transform="scale(0.015625)"/>
       </defs>
       <use xlink:href="#TimesNewRomanPSMT-4d"/>
       <use xlink:href="#TimesNewRomanPSMT-69" x="88.916016"/>
       <use xlink:href="#TimesNewRomanPSMT-64" x="116.699219"/>
       <use xlink:href="#TimesNewRomanPSMT-70" x="166.699219"/>
       <use xlink:href="#TimesNewRomanPSMT-6f" x="216.699219"/>
       <use xlink:href="#TimesNewRomanPSMT-69" x="266.699219"/>
       <use xlink:href="#TimesNewRomanPSMT-6e" x="294.482422"/>
       <use xlink:href="#TimesNewRomanPSMT-74" x="344.482422"/>
       <use xlink:href="#TimesNewRomanPSMT-20" x="372.265625"/>
       <use xlink:href="#TimesNewRomanPSMT-45" x="397.265625"/>
       <use xlink:href="#TimesNewRomanPSMT-78" x="458.349609"/>
       <use xlink:href="#TimesNewRomanPSMT-70" x="508.349609"/>
       <use xlink:href="#TimesNewRomanPSMT-6c" x="558.349609"/>
       <use xlink:href="#TimesNewRomanPSMT-69" x="586.132812"/>
       <use xlink:href="#TimesNewRomanPSMT-63" x="613.916016"/>
       <use xlink:href="#TimesNewRomanPSMT-69" x="658.300781"/>
       <use xlink:href="#TimesNewRomanPSMT-74" x="686.083984"/>
      </g>
     </g>
    </g>
    <g id="xtick_6">
     <g id="line2d_6">
      <g>
       <use xlink:href="#me8de3cc27f" x="209.705968" y="88.982117" style="stroke: #000000; stroke-width: 0.8"/>
      </g>
     </g>
     <g id="text_6">
      <!-- Midpoint Fixed -->
      <g transform="translate(169.17895 125.794763)rotate(-30)scale(0.08 -0.08)">
       <use xlink:href="#TimesNewRomanPSMT-4d"/>
       <use xlink:href="#TimesNewRomanPSMT-69" x="88.916016"/>
       <use xlink:href="#TimesNewRomanPSMT-64" x="116.699219"/>
       <use xlink:href="#TimesNewRomanPSMT-70" x="166.699219"/>
       <use xlink:href="#TimesNewRomanPSMT-6f" x="216.699219"/>
       <use xlink:href="#TimesNewRomanPSMT-69" x="266.699219"/>
       <use xlink:href="#TimesNewRomanPSMT-6e" x="294.482422"/>
       <use xlink:href="#TimesNewRomanPSMT-74" x="344.482422"/>
       <use xlink:href="#TimesNewRomanPSMT-20" x="372.265625"/>
       <use xlink:href="#TimesNewRomanPSMT-46" x="397.265625"/>
       <use xlink:href="#TimesNewRomanPSMT-69" x="452.880859"/>
       <use xlink:href="#TimesNewRomanPSMT-78" x="480.664062"/>
       <use xlink:href="#TimesNewRomanPSMT-65" x="530.664062"/>
       <use xlink:href="#TimesNewRomanPSMT-64" x="575.048828"/>
      </g>
     </g>
    </g>
    <g id="xtick_7">
     <g id="line2d_7">
      <g>
       <use xlink:href="#me8de3cc27f" x="238.864257" y="88.982117" style="stroke: #000000; stroke-width: 0.8"/>
      </g>
     </g>
     <g id="text_7">
      <!-- RK4 -->
      <g transform="translate(228.552866 108.349763)rotate(-30)scale(0.08 -0.08)">
       <defs>
        <path id="TimesNewRomanPSMT-52" d="M 4325 0 
L 3194 0 
L 1759 1981 
Q 1600 1975 1500 1975 
Q 1459 1975 1412 1976 
Q 1366 1978 1316 1981 
L 1316 750 
Q 1316 350 1403 253 
Q 1522 116 1759 116 
L 1925 116 
L 1925 0 
L 109 0 
L 109 116 
L 269 116 
Q 538 116 653 291 
Q 719 388 719 750 
L 719 3488 
Q 719 3888 631 3984 
Q 509 4122 269 4122 
L 109 4122 
L 109 4238 
L 1653 4238 
Q 2328 4238 2648 4139 
Q 2969 4041 3192 3777 
Q 3416 3513 3416 3147 
Q 3416 2756 3161 2468 
Q 2906 2181 2372 2063 
L 3247 847 
Q 3547 428 3762 290 
Q 3978 153 4325 116 
L 4325 0 
z
M 1316 2178 
Q 1375 2178 1419 2176 
Q 1463 2175 1491 2175 
Q 2097 2175 2405 2437 
Q 2713 2700 2713 3106 
Q 2713 3503 2464 3751 
Q 2216 4000 1806 4000 
Q 1625 4000 1316 3941 
L 1316 2178 
z
" transform="scale(0.015625)"/>
        <path id="TimesNewRomanPSMT-4b" d="M 1913 2350 
L 3475 797 
Q 3859 413 4131 273 
Q 4403 134 4675 116 
L 4675 0 
L 2659 0 
L 2659 116 
Q 2841 116 2920 177 
Q 3000 238 3000 313 
Q 3000 388 2970 447 
Q 2941 506 2775 669 
L 1313 2116 
L 1313 750 
Q 1313 428 1353 325 
Q 1384 247 1484 191 
Q 1619 116 1769 116 
L 1913 116 
L 1913 0 
L 106 0 
L 106 116 
L 256 116 
Q 519 116 638 269 
Q 713 369 713 750 
L 713 3488 
Q 713 3809 672 3916 
Q 641 3991 544 4047 
Q 406 4122 256 4122 
L 106 4122 
L 106 4238 
L 1913 4238 
L 1913 4122 
L 1769 4122 
Q 1622 4122 1484 4050 
Q 1388 4000 1350 3900 
Q 1313 3800 1313 3488 
L 1313 2191 
Q 1375 2250 1741 2588 
Q 2669 3438 2863 3722 
Q 2947 3847 2947 3941 
Q 2947 4013 2881 4067 
Q 2816 4122 2659 4122 
L 2563 4122 
L 2563 4238 
L 4119 4238 
L 4119 4122 
Q 3981 4119 3868 4084 
Q 3756 4050 3593 3951 
Q 3431 3853 3194 3634 
Q 3125 3572 2559 2994 
L 1913 2350 
z
" transform="scale(0.015625)"/>
        <path id="TimesNewRomanPSMT-34" d="M 2978 1563 
L 2978 1119 
L 2409 1119 
L 2409 0 
L 1894 0 
L 1894 1119 
L 100 1119 
L 100 1519 
L 2066 4325 
L 2409 4325 
L 2409 1563 
L 2978 1563 
z
M 1894 1563 
L 1894 3666 
L 406 1563 
L 1894 1563 
z
" transform="scale(0.015625)"/>
       </defs>
       <use xlink:href="#TimesNewRomanPSMT-52"/>
       <use xlink:href="#TimesNewRomanPSMT-4b" x="66.699219"/>
       <use xlink:href="#TimesNewRomanPSMT-34" x="138.916016"/>
      </g>
     </g>
    </g>
    <g id="xtick_8">
     <g id="line2d_8">
      <g>
       <use xlink:href="#me8de3cc27f" x="268.022547" y="88.982117" style="stroke: #000000; stroke-width: 0.8"/>
      </g>
     </g>
     <g id="text_8">
      <!-- FD - L Convection -->
      <g transform="translate(218.526753 130.972888)rotate(-30)scale(0.08 -0.08)">
       <defs>
        <path id="TimesNewRomanPSMT-2d" d="M 259 1672 
L 1875 1672 
L 1875 1200 
L 259 1200 
L 259 1672 
z
" transform="scale(0.015625)"/>
        <path id="TimesNewRomanPSMT-4c" d="M 3669 1172 
L 3772 1150 
L 3409 0 
L 128 0 
L 128 116 
L 288 116 
Q 556 116 672 291 
Q 738 391 738 753 
L 738 3488 
Q 738 3884 650 3984 
Q 528 4122 288 4122 
L 128 4122 
L 128 4238 
L 2047 4238 
L 2047 4122 
Q 1709 4125 1573 4059 
Q 1438 3994 1388 3894 
Q 1338 3794 1338 3416 
L 1338 753 
Q 1338 494 1388 397 
Q 1425 331 1503 300 
Q 1581 269 1991 269 
L 2300 269 
Q 2788 269 2984 341 
Q 3181 413 3343 595 
Q 3506 778 3669 1172 
z
" transform="scale(0.015625)"/>
        <path id="TimesNewRomanPSMT-43" d="M 3853 4334 
L 3950 2894 
L 3853 2894 
Q 3659 3541 3300 3825 
Q 2941 4109 2438 4109 
Q 2016 4109 1675 3895 
Q 1334 3681 1139 3212 
Q 944 2744 944 2047 
Q 944 1472 1128 1050 
Q 1313 628 1683 403 
Q 2053 178 2528 178 
Q 2941 178 3256 354 
Q 3572 531 3950 1056 
L 4047 994 
Q 3728 428 3303 165 
Q 2878 -97 2294 -97 
Q 1241 -97 663 684 
Q 231 1266 231 2053 
Q 231 2688 515 3219 
Q 800 3750 1298 4042 
Q 1797 4334 2388 4334 
Q 2847 4334 3294 4109 
Q 3425 4041 3481 4041 
Q 3566 4041 3628 4100 
Q 3709 4184 3744 4334 
L 3853 4334 
z
" transform="scale(0.015625)"/>
        <path id="TimesNewRomanPSMT-76" d="M 53 2863 
L 1400 2863 
L 1400 2747 
L 1313 2747 
Q 1191 2747 1127 2687 
Q 1063 2628 1063 2528 
Q 1063 2419 1128 2269 
L 1794 688 
L 2463 2328 
Q 2534 2503 2534 2594 
Q 2534 2638 2509 2666 
Q 2475 2713 2422 2730 
Q 2369 2747 2206 2747 
L 2206 2863 
L 3141 2863 
L 3141 2747 
Q 2978 2734 2916 2681 
Q 2806 2588 2719 2369 
L 1703 -88 
L 1575 -88 
L 553 2328 
Q 484 2497 421 2570 
Q 359 2644 263 2694 
Q 209 2722 53 2747 
L 53 2863 
z
" transform="scale(0.015625)"/>
       </defs>
       <use xlink:href="#TimesNewRomanPSMT-46"/>
       <use xlink:href="#TimesNewRomanPSMT-44" x="55.615234"/>
       <use xlink:href="#TimesNewRomanPSMT-20" x="127.832031"/>
       <use xlink:href="#TimesNewRomanPSMT-2d" x="152.832031"/>
       <use xlink:href="#TimesNewRomanPSMT-20" x="186.132812"/>
       <use xlink:href="#TimesNewRomanPSMT-4c" x="211.132812"/>
       <use xlink:href="#TimesNewRomanPSMT-20" x="268.466797"/>
       <use xlink:href="#TimesNewRomanPSMT-43" x="293.466797"/>
       <use xlink:href="#TimesNewRomanPSMT-6f" x="360.166016"/>
       <use xlink:href="#TimesNewRomanPSMT-6e" x="410.166016"/>
       <use xlink:href="#TimesNewRomanPSMT-76" x="460.166016"/>
       <use xlink:href="#TimesNewRomanPSMT-65" x="510.166016"/>
       <use xlink:href="#TimesNewRomanPSMT-63" x="554.550781"/>
       <use xlink:href="#TimesNewRomanPSMT-74" x="598.935547"/>
       <use xlink:href="#TimesNewRomanPSMT-69" x="626.71875"/>
       <use xlink:href="#TimesNewRomanPSMT-6f" x="654.501953"/>
       <use xlink:href="#TimesNewRomanPSMT-6e" x="704.501953"/>
      </g>
     </g>
    </g>
    <g id="xtick_9">
     <g id="line2d_9">
      <g>
       <use xlink:href="#me8de3cc27f" x="297.180836" y="88.982117" style="stroke: #000000; stroke-width: 0.8"/>
      </g>
     </g>
     <g id="text_9">
      <!-- FD - NL Convection -->
      <g transform="translate(242.681581 133.861638)rotate(-30)scale(0.08 -0.08)">
       <defs>
        <path id="TimesNewRomanPSMT-4e" d="M -84 4238 
L 1066 4238 
L 3656 1059 
L 3656 3503 
Q 3656 3894 3569 3991 
Q 3453 4122 3203 4122 
L 3056 4122 
L 3056 4238 
L 4531 4238 
L 4531 4122 
L 4381 4122 
Q 4113 4122 4000 3959 
Q 3931 3859 3931 3503 
L 3931 -69 
L 3819 -69 
L 1025 3344 
L 1025 734 
Q 1025 344 1109 247 
Q 1228 116 1475 116 
L 1625 116 
L 1625 0 
L 150 0 
L 150 116 
L 297 116 
Q 569 116 681 278 
Q 750 378 750 734 
L 750 3681 
Q 566 3897 470 3965 
Q 375 4034 191 4094 
Q 100 4122 -84 4122 
L -84 4238 
z
" transform="scale(0.015625)"/>
       </defs>
       <use xlink:href="#TimesNewRomanPSMT-46"/>
       <use xlink:href="#TimesNewRomanPSMT-44" x="55.615234"/>
       <use xlink:href="#TimesNewRomanPSMT-20" x="127.832031"/>
       <use xlink:href="#TimesNewRomanPSMT-2d" x="152.832031"/>
       <use xlink:href="#TimesNewRomanPSMT-20" x="186.132812"/>
       <use xlink:href="#TimesNewRomanPSMT-4e" x="211.132812"/>
       <use xlink:href="#TimesNewRomanPSMT-4c" x="283.349609"/>
       <use xlink:href="#TimesNewRomanPSMT-20" x="340.683594"/>
       <use xlink:href="#TimesNewRomanPSMT-43" x="365.683594"/>
       <use xlink:href="#TimesNewRomanPSMT-6f" x="432.382812"/>
       <use xlink:href="#TimesNewRomanPSMT-6e" x="482.382812"/>
       <use xlink:href="#TimesNewRomanPSMT-76" x="532.382812"/>
       <use xlink:href="#TimesNewRomanPSMT-65" x="582.382812"/>
       <use xlink:href="#TimesNewRomanPSMT-63" x="626.767578"/>
       <use xlink:href="#TimesNewRomanPSMT-74" x="671.152344"/>
       <use xlink:href="#TimesNewRomanPSMT-69" x="698.935547"/>
       <use xlink:href="#TimesNewRomanPSMT-6f" x="726.71875"/>
       <use xlink:href="#TimesNewRomanPSMT-6e" x="776.71875"/>
      </g>
     </g>
    </g>
    <g id="xtick_10">
     <g id="line2d_10">
      <g>
       <use xlink:href="#me8de3cc27f" x="326.339126" y="88.982117" style="stroke: #000000; stroke-width: 0.8"/>
      </g>
     </g>
     <g id="text_10">
      <!-- FD - Poisson -->
      <g transform="translate(292.926507 121.687263)rotate(-30)scale(0.08 -0.08)">
       <defs>
        <path id="TimesNewRomanPSMT-50" d="M 1313 1984 
L 1313 750 
Q 1313 350 1400 253 
Q 1519 116 1759 116 
L 1922 116 
L 1922 0 
L 106 0 
L 106 116 
L 266 116 
Q 534 116 650 291 
Q 713 388 713 750 
L 713 3488 
Q 713 3888 628 3984 
Q 506 4122 266 4122 
L 106 4122 
L 106 4238 
L 1659 4238 
Q 2228 4238 2556 4120 
Q 2884 4003 3109 3725 
Q 3334 3447 3334 3066 
Q 3334 2547 2992 2222 
Q 2650 1897 2025 1897 
Q 1872 1897 1694 1919 
Q 1516 1941 1313 1984 
z
M 1313 2163 
Q 1478 2131 1606 2115 
Q 1734 2100 1825 2100 
Q 2150 2100 2386 2351 
Q 2622 2603 2622 3003 
Q 2622 3278 2509 3514 
Q 2397 3750 2190 3867 
Q 1984 3984 1722 3984 
Q 1563 3984 1313 3925 
L 1313 2163 
z
" transform="scale(0.015625)"/>
       </defs>
       <use xlink:href="#TimesNewRomanPSMT-46"/>
       <use xlink:href="#TimesNewRomanPSMT-44" x="55.615234"/>
       <use xlink:href="#TimesNewRomanPSMT-20" x="127.832031"/>
       <use xlink:href="#TimesNewRomanPSMT-2d" x="152.832031"/>
       <use xlink:href="#TimesNewRomanPSMT-20" x="186.132812"/>
       <use xlink:href="#TimesNewRomanPSMT-50" x="211.132812"/>
       <use xlink:href="#TimesNewRomanPSMT-6f" x="266.748047"/>
       <use xlink:href="#TimesNewRomanPSMT-69" x="316.748047"/>
       <use xlink:href="#TimesNewRomanPSMT-73" x="344.53125"/>
       <use xlink:href="#TimesNewRomanPSMT-73" x="383.447266"/>
       <use xlink:href="#TimesNewRomanPSMT-6f" x="422.363281"/>
       <use xlink:href="#TimesNewRomanPSMT-6e" x="472.363281"/>
      </g>
     </g>
    </g>
    <g id="xtick_11">
     <g id="line2d_11">
      <g>
       <use xlink:href="#me8de3cc27f" x="355.497416" y="88.982117" style="stroke: #000000; stroke-width: 0.8"/>
      </g>
     </g>
     <g id="text_11">
      <!-- FD - Laplace -->
      <g transform="translate(321.725396 121.894763)rotate(-30)scale(0.08 -0.08)">
       <use xlink:href="#TimesNewRomanPSMT-46"/>
       <use xlink:href="#TimesNewRomanPSMT-44" x="55.615234"/>
       <use xlink:href="#TimesNewRomanPSMT-20" x="127.832031"/>
       <use xlink:href="#TimesNewRomanPSMT-2d" x="152.832031"/>
       <use xlink:href="#TimesNewRomanPSMT-20" x="186.132812"/>
       <use xlink:href="#TimesNewRomanPSMT-4c" x="211.132812"/>
       <use xlink:href="#TimesNewRomanPSMT-61" x="272.216797"/>
       <use xlink:href="#TimesNewRomanPSMT-70" x="316.601562"/>
       <use xlink:href="#TimesNewRomanPSMT-6c" x="366.601562"/>
       <use xlink:href="#TimesNewRomanPSMT-61" x="394.384766"/>
       <use xlink:href="#TimesNewRomanPSMT-63" x="438.769531"/>
       <use xlink:href="#TimesNewRomanPSMT-65" x="483.154297"/>
      </g>
     </g>
    </g>
    <g id="xtick_12">
     <g id="line2d_12">
      <g>
       <use xlink:href="#me8de3cc27f" x="384.655705" y="88.982117" style="stroke: #000000; stroke-width: 0.8"/>
      </g>
     </g>
     <g id="text_12">
      <!-- M-D -->
      <g transform="translate(373.96218 108.570388)rotate(-30)scale(0.08 -0.08)">
       <use xlink:href="#TimesNewRomanPSMT-4d"/>
       <use xlink:href="#TimesNewRomanPSMT-2d" x="88.916016"/>
       <use xlink:href="#TimesNewRomanPSMT-44" x="122.216797"/>
      </g>
     </g>
    </g>
   </g>
   <g id="matplotlib.axis_2">
    <g id="ytick_1">
     <g id="line2d_13">
      <path d="M 38.255225 88.982117 
L 410.315 88.982117 
" clip-path="url(#p622f6e10b7)" style="fill: none; stroke: #b0b0b0; stroke-opacity: 0.5; stroke-width: 0.5; stroke-linecap: square"/>
     </g>
     <g id="line2d_14">
      <defs>
       <path id="m5055fac3a8" d="M 0 0 
L -3.5 0 
" style="stroke: #000000; stroke-width: 0.8"/>
      </defs>
      <g>
       <use xlink:href="#m5055fac3a8" x="38.255225" y="88.982117" style="stroke: #000000; stroke-width: 0.8"/>
      </g>
     </g>
     <g id="text_13">
      <!-- $\mathdefault{10^{0}}$ -->
      <g transform="translate(19.975225 92.526492)scale(0.08 -0.08)">
       <defs>
        <path id="TimesNewRomanPSMT-31" d="M 750 3822 
L 1781 4325 
L 1884 4325 
L 1884 747 
Q 1884 391 1914 303 
Q 1944 216 2037 169 
Q 2131 122 2419 116 
L 2419 0 
L 825 0 
L 825 116 
Q 1125 122 1212 167 
Q 1300 213 1334 289 
Q 1369 366 1369 747 
L 1369 3034 
Q 1369 3497 1338 3628 
Q 1316 3728 1258 3775 
Q 1200 3822 1119 3822 
Q 1003 3822 797 3725 
L 750 3822 
z
" transform="scale(0.015625)"/>
        <path id="TimesNewRomanPSMT-30" d="M 231 2094 
Q 231 2819 450 3342 
Q 669 3866 1031 4122 
Q 1313 4325 1613 4325 
Q 2100 4325 2488 3828 
Q 2972 3213 2972 2159 
Q 2972 1422 2759 906 
Q 2547 391 2217 158 
Q 1888 -75 1581 -75 
Q 975 -75 572 641 
Q 231 1244 231 2094 
z
M 844 2016 
Q 844 1141 1059 588 
Q 1238 122 1591 122 
Q 1759 122 1940 273 
Q 2122 425 2216 781 
Q 2359 1319 2359 2297 
Q 2359 3022 2209 3506 
Q 2097 3866 1919 4016 
Q 1791 4119 1609 4119 
Q 1397 4119 1231 3928 
Q 1006 3669 925 3112 
Q 844 2556 844 2016 
z
" transform="scale(0.015625)"/>
       </defs>
       <use xlink:href="#TimesNewRomanPSMT-31" transform="translate(0 0.582813)"/>
       <use xlink:href="#TimesNewRomanPSMT-30" transform="translate(50 0.582813)"/>
       <use xlink:href="#TimesNewRomanPSMT-30" transform="translate(101.502813 60.695312)scale(0.7)"/>
      </g>
     </g>
    </g>
    <g id="ytick_2">
     <g id="line2d_15">
      <path d="M 38.255225 64.88757 
L 410.315 64.88757 
" clip-path="url(#p622f6e10b7)" style="fill: none; stroke: #b0b0b0; stroke-opacity: 0.5; stroke-width: 0.5; stroke-linecap: square"/>
     </g>
     <g id="line2d_16">
      <g>
       <use xlink:href="#m5055fac3a8" x="38.255225" y="64.88757" style="stroke: #000000; stroke-width: 0.8"/>
      </g>
     </g>
     <g id="text_14">
      <!-- $\mathdefault{10^{1}}$ -->
      <g transform="translate(19.975225 68.431945)scale(0.08 -0.08)">
       <use xlink:href="#TimesNewRomanPSMT-31" transform="translate(0 0.582813)"/>
       <use xlink:href="#TimesNewRomanPSMT-30" transform="translate(50 0.582813)"/>
       <use xlink:href="#TimesNewRomanPSMT-31" transform="translate(101.502813 60.695312)scale(0.7)"/>
      </g>
     </g>
    </g>
    <g id="ytick_3">
     <g id="line2d_17">
      <path d="M 38.255225 40.793022 
L 410.315 40.793022 
" clip-path="url(#p622f6e10b7)" style="fill: none; stroke: #b0b0b0; stroke-opacity: 0.5; stroke-width: 0.5; stroke-linecap: square"/>
     </g>
     <g id="line2d_18">
      <g>
       <use xlink:href="#m5055fac3a8" x="38.255225" y="40.793022" style="stroke: #000000; stroke-width: 0.8"/>
      </g>
     </g>
     <g id="text_15">
      <!-- $\mathdefault{10^{2}}$ -->
      <g transform="translate(19.975225 44.337397)scale(0.08 -0.08)">
       <defs>
        <path id="TimesNewRomanPSMT-32" d="M 2934 816 
L 2638 0 
L 138 0 
L 138 116 
Q 1241 1122 1691 1759 
Q 2141 2397 2141 2925 
Q 2141 3328 1894 3587 
Q 1647 3847 1303 3847 
Q 991 3847 742 3664 
Q 494 3481 375 3128 
L 259 3128 
Q 338 3706 661 4015 
Q 984 4325 1469 4325 
Q 1984 4325 2329 3994 
Q 2675 3663 2675 3213 
Q 2675 2891 2525 2569 
Q 2294 2063 1775 1497 
Q 997 647 803 472 
L 1909 472 
Q 2247 472 2383 497 
Q 2519 522 2628 598 
Q 2738 675 2819 816 
L 2934 816 
z
" transform="scale(0.015625)"/>
       </defs>
       <use xlink:href="#TimesNewRomanPSMT-31" transform="translate(0 0.582813)"/>
       <use xlink:href="#TimesNewRomanPSMT-30" transform="translate(50 0.582813)"/>
       <use xlink:href="#TimesNewRomanPSMT-32" transform="translate(101.502813 60.695312)scale(0.7)"/>
      </g>
     </g>
    </g>
    <g id="ytick_4">
     <g id="line2d_19">
      <path d="M 38.255225 16.698475 
L 410.315 16.698475 
" clip-path="url(#p622f6e10b7)" style="fill: none; stroke: #b0b0b0; stroke-opacity: 0.5; stroke-width: 0.5; stroke-linecap: square"/>
     </g>
     <g id="line2d_20">
      <g>
       <use xlink:href="#m5055fac3a8" x="38.255225" y="16.698475" style="stroke: #000000; stroke-width: 0.8"/>
      </g>
     </g>
     <g id="text_16">
      <!-- $\mathdefault{10^{3}}$ -->
      <g transform="translate(19.975225 20.24285)scale(0.08 -0.08)">
       <defs>
        <path id="TimesNewRomanPSMT-33" d="M 325 3431 
Q 506 3859 782 4092 
Q 1059 4325 1472 4325 
Q 1981 4325 2253 3994 
Q 2459 3747 2459 3466 
Q 2459 3003 1878 2509 
Q 2269 2356 2469 2072 
Q 2669 1788 2669 1403 
Q 2669 853 2319 450 
Q 1863 -75 997 -75 
Q 569 -75 414 31 
Q 259 138 259 259 
Q 259 350 332 419 
Q 406 488 509 488 
Q 588 488 669 463 
Q 722 447 909 348 
Q 1097 250 1169 231 
Q 1284 197 1416 197 
Q 1734 197 1970 444 
Q 2206 691 2206 1028 
Q 2206 1275 2097 1509 
Q 2016 1684 1919 1775 
Q 1784 1900 1550 2001 
Q 1316 2103 1072 2103 
L 972 2103 
L 972 2197 
Q 1219 2228 1467 2375 
Q 1716 2522 1828 2728 
Q 1941 2934 1941 3181 
Q 1941 3503 1739 3701 
Q 1538 3900 1238 3900 
Q 753 3900 428 3381 
L 325 3431 
z
" transform="scale(0.015625)"/>
       </defs>
       <use xlink:href="#TimesNewRomanPSMT-31" transform="translate(0 0.582813)"/>
       <use xlink:href="#TimesNewRomanPSMT-30" transform="translate(50 0.582813)"/>
       <use xlink:href="#TimesNewRomanPSMT-33" transform="translate(101.502813 60.695312)scale(0.7)"/>
      </g>
     </g>
    </g>
    <g id="ytick_5">
     <g id="line2d_21">
      <path d="M 38.255225 81.728936 
L 410.315 81.728936 
" clip-path="url(#p622f6e10b7)" style="fill: none; stroke: #b0b0b0; stroke-opacity: 0.5; stroke-width: 0.25; stroke-linecap: square"/>
     </g>
     <g id="line2d_22">
      <defs>
       <path id="ma5341aeeae" d="M 0 0 
L -2 0 
" style="stroke: #000000; stroke-width: 0.6"/>
      </defs>
      <g>
       <use xlink:href="#ma5341aeeae" x="38.255225" y="81.728936" style="stroke: #000000; stroke-width: 0.6"/>
      </g>
     </g>
    </g>
    <g id="ytick_6">
     <g id="line2d_23">
      <path d="M 38.255225 77.486096 
L 410.315 77.486096 
" clip-path="url(#p622f6e10b7)" style="fill: none; stroke: #b0b0b0; stroke-opacity: 0.5; stroke-width: 0.25; stroke-linecap: square"/>
     </g>
     <g id="line2d_24">
      <g>
       <use xlink:href="#ma5341aeeae" x="38.255225" y="77.486096" style="stroke: #000000; stroke-width: 0.6"/>
      </g>
     </g>
    </g>
    <g id="ytick_7">
     <g id="line2d_25">
      <path d="M 38.255225 74.475754 
L 410.315 74.475754 
" clip-path="url(#p622f6e10b7)" style="fill: none; stroke: #b0b0b0; stroke-opacity: 0.5; stroke-width: 0.25; stroke-linecap: square"/>
     </g>
     <g id="line2d_26">
      <g>
       <use xlink:href="#ma5341aeeae" x="38.255225" y="74.475754" style="stroke: #000000; stroke-width: 0.6"/>
      </g>
     </g>
    </g>
    <g id="ytick_8">
     <g id="line2d_27">
      <path d="M 38.255225 72.140751 
L 410.315 72.140751 
" clip-path="url(#p622f6e10b7)" style="fill: none; stroke: #b0b0b0; stroke-opacity: 0.5; stroke-width: 0.25; stroke-linecap: square"/>
     </g>
     <g id="line2d_28">
      <g>
       <use xlink:href="#ma5341aeeae" x="38.255225" y="72.140751" style="stroke: #000000; stroke-width: 0.6"/>
      </g>
     </g>
    </g>
    <g id="ytick_9">
     <g id="line2d_29">
      <path d="M 38.255225 70.232915 
L 410.315 70.232915 
" clip-path="url(#p622f6e10b7)" style="fill: none; stroke: #b0b0b0; stroke-opacity: 0.5; stroke-width: 0.25; stroke-linecap: square"/>
     </g>
     <g id="line2d_30">
      <g>
       <use xlink:href="#ma5341aeeae" x="38.255225" y="70.232915" style="stroke: #000000; stroke-width: 0.6"/>
      </g>
     </g>
    </g>
    <g id="ytick_10">
     <g id="line2d_31">
      <path d="M 38.255225 68.619862 
L 410.315 68.619862 
" clip-path="url(#p622f6e10b7)" style="fill: none; stroke: #b0b0b0; stroke-opacity: 0.5; stroke-width: 0.25; stroke-linecap: square"/>
     </g>
     <g id="line2d_32">
      <g>
       <use xlink:href="#ma5341aeeae" x="38.255225" y="68.619862" style="stroke: #000000; stroke-width: 0.6"/>
      </g>
     </g>
    </g>
    <g id="ytick_11">
     <g id="line2d_33">
      <path d="M 38.255225 67.222573 
L 410.315 67.222573 
" clip-path="url(#p622f6e10b7)" style="fill: none; stroke: #b0b0b0; stroke-opacity: 0.5; stroke-width: 0.25; stroke-linecap: square"/>
     </g>
     <g id="line2d_34">
      <g>
       <use xlink:href="#ma5341aeeae" x="38.255225" y="67.222573" style="stroke: #000000; stroke-width: 0.6"/>
      </g>
     </g>
    </g>
    <g id="ytick_12">
     <g id="line2d_35">
      <path d="M 38.255225 65.990076 
L 410.315 65.990076 
" clip-path="url(#p622f6e10b7)" style="fill: none; stroke: #b0b0b0; stroke-opacity: 0.5; stroke-width: 0.25; stroke-linecap: square"/>
     </g>
     <g id="line2d_36">
      <g>
       <use xlink:href="#ma5341aeeae" x="38.255225" y="65.990076" style="stroke: #000000; stroke-width: 0.6"/>
      </g>
     </g>
    </g>
    <g id="ytick_13">
     <g id="line2d_37">
      <path d="M 38.255225 57.634388 
L 410.315 57.634388 
" clip-path="url(#p622f6e10b7)" style="fill: none; stroke: #b0b0b0; stroke-opacity: 0.5; stroke-width: 0.25; stroke-linecap: square"/>
     </g>
     <g id="line2d_38">
      <g>
       <use xlink:href="#ma5341aeeae" x="38.255225" y="57.634388" style="stroke: #000000; stroke-width: 0.6"/>
      </g>
     </g>
    </g>
    <g id="ytick_14">
     <g id="line2d_39">
      <path d="M 38.255225 53.391549 
L 410.315 53.391549 
" clip-path="url(#p622f6e10b7)" style="fill: none; stroke: #b0b0b0; stroke-opacity: 0.5; stroke-width: 0.25; stroke-linecap: square"/>
     </g>
     <g id="line2d_40">
      <g>
       <use xlink:href="#ma5341aeeae" x="38.255225" y="53.391549" style="stroke: #000000; stroke-width: 0.6"/>
      </g>
     </g>
    </g>
    <g id="ytick_15">
     <g id="line2d_41">
      <path d="M 38.255225 50.381207 
L 410.315 50.381207 
" clip-path="url(#p622f6e10b7)" style="fill: none; stroke: #b0b0b0; stroke-opacity: 0.5; stroke-width: 0.25; stroke-linecap: square"/>
     </g>
     <g id="line2d_42">
      <g>
       <use xlink:href="#ma5341aeeae" x="38.255225" y="50.381207" style="stroke: #000000; stroke-width: 0.6"/>
      </g>
     </g>
    </g>
    <g id="ytick_16">
     <g id="line2d_43">
      <path d="M 38.255225 48.046204 
L 410.315 48.046204 
" clip-path="url(#p622f6e10b7)" style="fill: none; stroke: #b0b0b0; stroke-opacity: 0.5; stroke-width: 0.25; stroke-linecap: square"/>
     </g>
     <g id="line2d_44">
      <g>
       <use xlink:href="#ma5341aeeae" x="38.255225" y="48.046204" style="stroke: #000000; stroke-width: 0.6"/>
      </g>
     </g>
    </g>
    <g id="ytick_17">
     <g id="line2d_45">
      <path d="M 38.255225 46.138368 
L 410.315 46.138368 
" clip-path="url(#p622f6e10b7)" style="fill: none; stroke: #b0b0b0; stroke-opacity: 0.5; stroke-width: 0.25; stroke-linecap: square"/>
     </g>
     <g id="line2d_46">
      <g>
       <use xlink:href="#ma5341aeeae" x="38.255225" y="46.138368" style="stroke: #000000; stroke-width: 0.6"/>
      </g>
     </g>
    </g>
    <g id="ytick_18">
     <g id="line2d_47">
      <path d="M 38.255225 44.525315 
L 410.315 44.525315 
" clip-path="url(#p622f6e10b7)" style="fill: none; stroke: #b0b0b0; stroke-opacity: 0.5; stroke-width: 0.25; stroke-linecap: square"/>
     </g>
     <g id="line2d_48">
      <g>
       <use xlink:href="#ma5341aeeae" x="38.255225" y="44.525315" style="stroke: #000000; stroke-width: 0.6"/>
      </g>
     </g>
    </g>
    <g id="ytick_19">
     <g id="line2d_49">
      <path d="M 38.255225 43.128025 
L 410.315 43.128025 
" clip-path="url(#p622f6e10b7)" style="fill: none; stroke: #b0b0b0; stroke-opacity: 0.5; stroke-width: 0.25; stroke-linecap: square"/>
     </g>
     <g id="line2d_50">
      <g>
       <use xlink:href="#ma5341aeeae" x="38.255225" y="43.128025" style="stroke: #000000; stroke-width: 0.6"/>
      </g>
     </g>
    </g>
    <g id="ytick_20">
     <g id="line2d_51">
      <path d="M 38.255225 41.895528 
L 410.315 41.895528 
" clip-path="url(#p622f6e10b7)" style="fill: none; stroke: #b0b0b0; stroke-opacity: 0.5; stroke-width: 0.25; stroke-linecap: square"/>
     </g>
     <g id="line2d_52">
      <g>
       <use xlink:href="#ma5341aeeae" x="38.255225" y="41.895528" style="stroke: #000000; stroke-width: 0.6"/>
      </g>
     </g>
    </g>
    <g id="ytick_21">
     <g id="line2d_53">
      <path d="M 38.255225 33.539841 
L 410.315 33.539841 
" clip-path="url(#p622f6e10b7)" style="fill: none; stroke: #b0b0b0; stroke-opacity: 0.5; stroke-width: 0.25; stroke-linecap: square"/>
     </g>
     <g id="line2d_54">
      <g>
       <use xlink:href="#ma5341aeeae" x="38.255225" y="33.539841" style="stroke: #000000; stroke-width: 0.6"/>
      </g>
     </g>
    </g>
    <g id="ytick_22">
     <g id="line2d_55">
      <path d="M 38.255225 29.297002 
L 410.315 29.297002 
" clip-path="url(#p622f6e10b7)" style="fill: none; stroke: #b0b0b0; stroke-opacity: 0.5; stroke-width: 0.25; stroke-linecap: square"/>
     </g>
     <g id="line2d_56">
      <g>
       <use xlink:href="#ma5341aeeae" x="38.255225" y="29.297002" style="stroke: #000000; stroke-width: 0.6"/>
      </g>
     </g>
    </g>
    <g id="ytick_23">
     <g id="line2d_57">
      <path d="M 38.255225 26.286659 
L 410.315 26.286659 
" clip-path="url(#p622f6e10b7)" style="fill: none; stroke: #b0b0b0; stroke-opacity: 0.5; stroke-width: 0.25; stroke-linecap: square"/>
     </g>
     <g id="line2d_58">
      <g>
       <use xlink:href="#ma5341aeeae" x="38.255225" y="26.286659" style="stroke: #000000; stroke-width: 0.6"/>
      </g>
     </g>
    </g>
    <g id="ytick_24">
     <g id="line2d_59">
      <path d="M 38.255225 23.951656 
L 410.315 23.951656 
" clip-path="url(#p622f6e10b7)" style="fill: none; stroke: #b0b0b0; stroke-opacity: 0.5; stroke-width: 0.25; stroke-linecap: square"/>
     </g>
     <g id="line2d_60">
      <g>
       <use xlink:href="#ma5341aeeae" x="38.255225" y="23.951656" style="stroke: #000000; stroke-width: 0.6"/>
      </g>
     </g>
    </g>
    <g id="ytick_25">
     <g id="line2d_61">
      <path d="M 38.255225 22.04382 
L 410.315 22.04382 
" clip-path="url(#p622f6e10b7)" style="fill: none; stroke: #b0b0b0; stroke-opacity: 0.5; stroke-width: 0.25; stroke-linecap: square"/>
     </g>
     <g id="line2d_62">
      <g>
       <use xlink:href="#ma5341aeeae" x="38.255225" y="22.04382" style="stroke: #000000; stroke-width: 0.6"/>
      </g>
     </g>
    </g>
    <g id="ytick_26">
     <g id="line2d_63">
      <path d="M 38.255225 20.430768 
L 410.315 20.430768 
" clip-path="url(#p622f6e10b7)" style="fill: none; stroke: #b0b0b0; stroke-opacity: 0.5; stroke-width: 0.25; stroke-linecap: square"/>
     </g>
     <g id="line2d_64">
      <g>
       <use xlink:href="#ma5341aeeae" x="38.255225" y="20.430768" style="stroke: #000000; stroke-width: 0.6"/>
      </g>
     </g>
    </g>
    <g id="ytick_27">
     <g id="line2d_65">
      <path d="M 38.255225 19.033478 
L 410.315 19.033478 
" clip-path="url(#p622f6e10b7)" style="fill: none; stroke: #b0b0b0; stroke-opacity: 0.5; stroke-width: 0.25; stroke-linecap: square"/>
     </g>
     <g id="line2d_66">
      <g>
       <use xlink:href="#ma5341aeeae" x="38.255225" y="19.033478" style="stroke: #000000; stroke-width: 0.6"/>
      </g>
     </g>
    </g>
    <g id="ytick_28">
     <g id="line2d_67">
      <path d="M 38.255225 17.800981 
L 410.315 17.800981 
" clip-path="url(#p622f6e10b7)" style="fill: none; stroke: #b0b0b0; stroke-opacity: 0.5; stroke-width: 0.25; stroke-linecap: square"/>
     </g>
     <g id="line2d_68">
      <g>
       <use xlink:href="#ma5341aeeae" x="38.255225" y="17.800981" style="stroke: #000000; stroke-width: 0.6"/>
      </g>
     </g>
    </g>
    <g id="ytick_29">
     <g id="line2d_69">
      <path d="M 38.255225 9.445293 
L 410.315 9.445293 
" clip-path="url(#p622f6e10b7)" style="fill: none; stroke: #b0b0b0; stroke-opacity: 0.5; stroke-width: 0.25; stroke-linecap: square"/>
     </g>
     <g id="line2d_70">
      <g>
       <use xlink:href="#ma5341aeeae" x="38.255225" y="9.445293" style="stroke: #000000; stroke-width: 0.6"/>
      </g>
     </g>
    </g>
    <g id="text_17">
     <!-- Speedup -->
     <g transform="translate(14.263975 62.586684)rotate(-90)scale(0.08 -0.08)">
      <defs>
       <path id="TimesNewRomanPSMT-53" d="M 2934 4334 
L 2934 2869 
L 2819 2869 
Q 2763 3291 2617 3541 
Q 2472 3791 2203 3937 
Q 1934 4084 1647 4084 
Q 1322 4084 1109 3886 
Q 897 3688 897 3434 
Q 897 3241 1031 3081 
Q 1225 2847 1953 2456 
Q 2547 2138 2764 1967 
Q 2981 1797 3098 1565 
Q 3216 1334 3216 1081 
Q 3216 600 2842 251 
Q 2469 -97 1881 -97 
Q 1697 -97 1534 -69 
Q 1438 -53 1133 45 
Q 828 144 747 144 
Q 669 144 623 97 
Q 578 50 556 -97 
L 441 -97 
L 441 1356 
L 556 1356 
Q 638 900 775 673 
Q 913 447 1195 297 
Q 1478 147 1816 147 
Q 2206 147 2432 353 
Q 2659 559 2659 841 
Q 2659 997 2573 1156 
Q 2488 1316 2306 1453 
Q 2184 1547 1640 1851 
Q 1097 2156 867 2337 
Q 638 2519 519 2737 
Q 400 2956 400 3219 
Q 400 3675 750 4004 
Q 1100 4334 1641 4334 
Q 1978 4334 2356 4169 
Q 2531 4091 2603 4091 
Q 2684 4091 2736 4139 
Q 2788 4188 2819 4334 
L 2934 4334 
z
" transform="scale(0.015625)"/>
      </defs>
      <use xlink:href="#TimesNewRomanPSMT-53"/>
      <use xlink:href="#TimesNewRomanPSMT-70" x="55.615234"/>
      <use xlink:href="#TimesNewRomanPSMT-65" x="105.615234"/>
      <use xlink:href="#TimesNewRomanPSMT-65" x="150"/>
      <use xlink:href="#TimesNewRomanPSMT-64" x="194.384766"/>
      <use xlink:href="#TimesNewRomanPSMT-75" x="244.384766"/>
      <use xlink:href="#TimesNewRomanPSMT-70" x="294.384766"/>
     </g>
    </g>
   </g>
   <g id="patch_3">
    <path d="M 55.167033 24183.529486 
L 59.540776 24183.529486 
L 59.540776 57.519397 
L 55.167033 57.519397 
z
" clip-path="url(#p622f6e10b7)" style="fill: #ff7f0e"/>
   </g>
   <g id="patch_4">
    <path d="M 84.325323 24183.529486 
L 88.699066 24183.529486 
L 88.699066 27.683949 
L 84.325323 27.683949 
z
" clip-path="url(#p622f6e10b7)" style="fill: #ff7f0e"/>
   </g>
   <g id="patch_5">
    <path d="M 113.483612 24183.529486 
L 117.857356 24183.529486 
L 117.857356 33.209276 
L 113.483612 33.209276 
z
" clip-path="url(#p622f6e10b7)" style="fill: #ff7f0e"/>
   </g>
   <g id="patch_6">
    <path d="M 142.641902 24183.529486 
L 147.015645 24183.529486 
L 147.015645 41.120394 
L 142.641902 41.120394 
z
" clip-path="url(#p622f6e10b7)" style="fill: #ff7f0e"/>
   </g>
   <g id="patch_7">
    <path d="M 171.800191 24183.529486 
L 176.173935 24183.529486 
L 176.173935 42.388806 
L 171.800191 42.388806 
z
" clip-path="url(#p622f6e10b7)" style="fill: #ff7f0e"/>
   </g>
   <g id="patch_8">
    <path d="M 200.958481 24183.529486 
L 205.332224 24183.529486 
L 205.332224 44.675881 
L 200.958481 44.675881 
z
" clip-path="url(#p622f6e10b7)" style="fill: #ff7f0e"/>
   </g>
   <g id="patch_9">
    <path d="M 230.11677 24183.529486 
L 234.490514 24183.529486 
L 234.490514 39.576465 
L 230.11677 39.576465 
z
" clip-path="url(#p622f6e10b7)" style="fill: #ff7f0e"/>
   </g>
   <g id="patch_10">
    <path d="M 259.27506 24183.529486 
L 263.648803 24183.529486 
L 263.648803 27.440804 
L 259.27506 27.440804 
z
" clip-path="url(#p622f6e10b7)" style="fill: #ff7f0e"/>
   </g>
   <g id="patch_11">
    <path d="M 288.43335 24183.529486 
L 292.807093 24183.529486 
L 292.807093 24.909282 
L 288.43335 24.909282 
z
" clip-path="url(#p622f6e10b7)" style="fill: #ff7f0e"/>
   </g>
   <g id="patch_12">
    <path d="M 317.591639 24183.529486 
L 321.965383 24183.529486 
L 321.965383 21.616654 
L 317.591639 21.616654 
z
" clip-path="url(#p622f6e10b7)" style="fill: #ff7f0e"/>
   </g>
   <g id="patch_13">
    <path d="M 346.749929 24183.529486 
L 351.123672 24183.529486 
L 351.123672 87.6944 
L 346.749929 87.6944 
z
" clip-path="url(#p622f6e10b7)" style="fill: #ff7f0e"/>
   </g>
   <g id="patch_14">
    <path d="M 375.908218 24183.529486 
L 380.281962 24183.529486 
L 380.281962 24.506002 
L 375.908218 24.506002 
z
" clip-path="url(#p622f6e10b7)" style="fill: #ff7f0e"/>
   </g>
   <g id="patch_15">
    <path d="M 59.540776 24183.529486 
L 63.91452 24183.529486 
L 63.91452 63.898805 
L 59.540776 63.898805 
z
" clip-path="url(#p622f6e10b7)" style="fill: #2ca02c"/>
   </g>
   <g id="patch_16">
    <path d="M 88.699066 24183.529486 
L 93.072809 24183.529486 
L 93.072809 32.129982 
L 88.699066 32.129982 
z
" clip-path="url(#p622f6e10b7)" style="fill: #2ca02c"/>
   </g>
   <g id="patch_17">
    <path d="M 117.857356 24183.529486 
L 122.231099 24183.529486 
L 122.231099 32.515065 
L 117.857356 32.515065 
z
" clip-path="url(#p622f6e10b7)" style="fill: #2ca02c"/>
   </g>
   <g id="patch_18">
    <path d="M 147.015645 24183.529486 
L 151.389389 24183.529486 
L 151.389389 53.88942 
L 147.015645 53.88942 
z
" clip-path="url(#p622f6e10b7)" style="fill: #2ca02c"/>
   </g>
   <g id="patch_19">
    <path d="M 176.173935 24183.529486 
L 180.547678 24183.529486 
L 180.547678 54.255277 
L 176.173935 54.255277 
z
" clip-path="url(#p622f6e10b7)" style="fill: #2ca02c"/>
   </g>
   <g id="patch_20">
    <path d="M 205.332224 24183.529486 
L 209.705968 24183.529486 
L 209.705968 55.179545 
L 205.332224 55.179545 
z
" clip-path="url(#p622f6e10b7)" style="fill: #2ca02c"/>
   </g>
   <g id="patch_21">
    <path d="M 234.490514 24183.529486 
L 238.864257 24183.529486 
L 238.864257 51.854784 
L 234.490514 51.854784 
z
" clip-path="url(#p622f6e10b7)" style="fill: #2ca02c"/>
   </g>
   <g id="patch_22">
    <path d="M 263.648803 24183.529486 
L 268.022547 24183.529486 
L 268.022547 34.080277 
L 263.648803 34.080277 
z
" clip-path="url(#p622f6e10b7)" style="fill: #2ca02c"/>
   </g>
   <g id="patch_23">
    <path d="M 292.807093 24183.529486 
L 297.180836 24183.529486 
L 297.180836 31.770604 
L 292.807093 31.770604 
z
" clip-path="url(#p622f6e10b7)" style="fill: #2ca02c"/>
   </g>
   <g id="patch_24">
    <path d="M 321.965383 24183.529486 
L 326.339126 24183.529486 
L 326.339126 27.179139 
L 321.965383 27.179139 
z
" clip-path="url(#p622f6e10b7)" style="fill: #2ca02c"/>
   </g>
   <g id="patch_25">
    <path d="M 351.123672 24183.529486 
L 355.497416 24183.529486 
L 355.497416 92.284374 
L 351.123672 92.284374 
z
" clip-path="url(#p622f6e10b7)" style="fill: #2ca02c"/>
   </g>
   <g id="patch_26">
    <path d="M 380.281962 24183.529486 
L 384.655705 24183.529486 
L 384.655705 34.119865 
L 380.281962 34.119865 
z
" clip-path="url(#p622f6e10b7)" style="fill: #2ca02c"/>
   </g>
   <g id="patch_27">
    <path d="M 63.91452 24183.529486 
L 68.288263 24183.529486 
L 68.288263 39.929204 
L 63.91452 39.929204 
z
" clip-path="url(#p622f6e10b7)" style="fill: #d62728"/>
   </g>
   <g id="patch_28">
    <path d="M 93.072809 24183.529486 
L 97.446553 24183.529486 
L 97.446553 23.72948 
L 93.072809 23.72948 
z
" clip-path="url(#p622f6e10b7)" style="fill: #d62728"/>
   </g>
   <g id="patch_29">
    <path d="M 122.231099 24183.529486 
L 126.604842 24183.529486 
L 126.604842 32.012071 
L 122.231099 32.012071 
z
" clip-path="url(#p622f6e10b7)" style="fill: #d62728"/>
   </g>
   <g id="patch_30">
    <path d="M 151.389389 24183.529486 
L 155.763132 24183.529486 
L 155.763132 29.794872 
L 151.389389 29.794872 
z
" clip-path="url(#p622f6e10b7)" style="fill: #d62728"/>
   </g>
   <g id="patch_31">
    <path d="M 180.547678 24183.529486 
L 184.921422 24183.529486 
L 184.921422 26.956507 
L 180.547678 26.956507 
z
" clip-path="url(#p622f6e10b7)" style="fill: #d62728"/>
   </g>
   <g id="patch_32">
    <path d="M 209.705968 24183.529486 
L 214.079711 24183.529486 
L 214.079711 24.313626 
L 209.705968 24.313626 
z
" clip-path="url(#p622f6e10b7)" style="fill: #d62728"/>
   </g>
   <g id="patch_33">
    <path d="M 238.864257 24183.529486 
L 243.238001 24183.529486 
L 243.238001 20.084814 
L 238.864257 20.084814 
z
" clip-path="url(#p622f6e10b7)" style="fill: #d62728"/>
   </g>
   <g id="patch_34">
    <path d="M 268.022547 24183.529486 
L 272.39629 24183.529486 
L 272.39629 16.128599 
L 268.022547 16.128599 
z
" clip-path="url(#p622f6e10b7)" style="fill: #d62728"/>
   </g>
   <g id="patch_35">
    <path d="M 297.180836 24183.529486 
L 301.55458 24183.529486 
L 301.55458 12.798753 
L 297.180836 12.798753 
z
" clip-path="url(#p622f6e10b7)" style="fill: #d62728"/>
   </g>
   <g id="patch_36">
    <path d="M 326.339126 24183.529486 
L 330.712869 24183.529486 
L 330.712869 12.623065 
L 326.339126 12.623065 
z
" clip-path="url(#p622f6e10b7)" style="fill: #d62728"/>
   </g>
   <g id="patch_37">
    <path d="M 355.497416 24183.529486 
L 359.871159 24183.529486 
L 359.871159 82.973664 
L 355.497416 82.973664 
z
" clip-path="url(#p622f6e10b7)" style="fill: #d62728"/>
   </g>
   <g id="patch_38">
    <path d="M 384.655705 24183.529486 
L 389.029449 24183.529486 
L 389.029449 32.891215 
L 384.655705 32.891215 
z
" clip-path="url(#p622f6e10b7)" style="fill: #d62728"/>
   </g>
   <g id="patch_39">
    <path d="M 68.288263 24183.529486 
L 72.662007 24183.529486 
L 72.662007 39.387561 
L 68.288263 39.387561 
z
" clip-path="url(#p622f6e10b7)" style="fill: #9467bd"/>
   </g>
   <g id="patch_40">
    <path d="M 97.446553 24183.529486 
L 101.820296 24183.529486 
L 101.820296 28.282062 
L 97.446553 28.282062 
z
" clip-path="url(#p622f6e10b7)" style="fill: #9467bd"/>
   </g>
   <g id="patch_41">
    <path d="M 126.604842 24183.529486 
L 130.978586 24183.529486 
L 130.978586 37.404873 
L 126.604842 37.404873 
z
" clip-path="url(#p622f6e10b7)" style="fill: #9467bd"/>
   </g>
   <g id="patch_42">
    <path d="M 155.763132 24183.529486 
L 160.136875 24183.529486 
L 160.136875 58.84716 
L 155.763132 58.84716 
z
" clip-path="url(#p622f6e10b7)" style="fill: #9467bd"/>
   </g>
   <g id="patch_43">
    <path d="M 184.921422 24183.529486 
L 189.295165 24183.529486 
L 189.295165 57.105159 
L 184.921422 57.105159 
z
" clip-path="url(#p622f6e10b7)" style="fill: #9467bd"/>
   </g>
   <g id="patch_44">
    <path d="M 214.079711 24183.529486 
L 218.453455 24183.529486 
L 218.453455 54.44193 
L 214.079711 54.44193 
z
" clip-path="url(#p622f6e10b7)" style="fill: #9467bd"/>
   </g>
   <g id="patch_45">
    <path d="M 243.238001 24183.529486 
L 247.611744 24183.529486 
L 247.611744 49.058998 
L 243.238001 49.058998 
z
" clip-path="url(#p622f6e10b7)" style="fill: #9467bd"/>
   </g>
   <g id="patch_46">
    <path d="M 272.39629 24183.529486 
L 276.770034 24183.529486 
L 276.770034 16.010803 
L 272.39629 16.010803 
z
" clip-path="url(#p622f6e10b7)" style="fill: #9467bd"/>
   </g>
   <g id="patch_47">
    <path d="M 301.55458 24183.529486 
L 305.928323 24183.529486 
L 305.928323 13.413262 
L 301.55458 13.413262 
z
" clip-path="url(#p622f6e10b7)" style="fill: #9467bd"/>
   </g>
   <g id="patch_48">
    <path d="M 330.712869 24183.529486 
L 335.086613 24183.529486 
L 335.086613 13.409924 
L 330.712869 13.409924 
z
" clip-path="url(#p622f6e10b7)" style="fill: #9467bd"/>
   </g>
   <g id="patch_49">
    <path d="M 359.871159 24183.529486 
L 364.244902 24183.529486 
L 364.244902 90.12859 
L 359.871159 90.12859 
z
" clip-path="url(#p622f6e10b7)" style="fill: #9467bd"/>
   </g>
   <g id="patch_50">
    <path d="M 389.029449 24183.529486 
L 393.403192 24183.529486 
L 393.403192 33.353856 
L 389.029449 33.353856 
z
" clip-path="url(#p622f6e10b7)" style="fill: #9467bd"/>
   </g>
   <g id="patch_51">
    <path d="M 38.255225 88.982117 
L 38.255225 8.64 
" style="fill: none; stroke: #000000; stroke-width: 0.8; stroke-linejoin: miter; stroke-linecap: square"/>
   </g>
   <g id="patch_52">
    <path d="M 410.315 88.982117 
L 410.315 8.64 
" style="fill: none; stroke: #000000; stroke-width: 0.8; stroke-linejoin: miter; stroke-linecap: square"/>
   </g>
   <g id="patch_53">
    <path d="M 38.255225 88.982117 
L 410.315 88.982117 
" style="fill: none; stroke: #000000; stroke-width: 0.8; stroke-linejoin: miter; stroke-linecap: square"/>
   </g>
   <g id="patch_54">
    <path d="M 38.255225 8.64 
L 410.315 8.64 
" style="fill: none; stroke: #000000; stroke-width: 0.8; stroke-linejoin: miter; stroke-linecap: square"/>
   </g>
   <g id="legend_1">
    <g id="patch_55">
     <path d="M 415.915 72.656059 
L 493.7175 72.656059 
Q 495.3175 72.656059 495.3175 71.056059 
L 495.3175 26.566059 
Q 495.3175 24.966059 493.7175 24.966059 
L 415.915 24.966059 
Q 414.315 24.966059 414.315 26.566059 
L 414.315 71.056059 
Q 414.315 72.656059 415.915 72.656059 
z
" style="fill: #ffffff; opacity: 0.8; stroke: #cccccc; stroke-linejoin: miter"/>
    </g>
    <g id="patch_56">
     <path d="M 417.515 33.766059 
L 433.515 33.766059 
L 433.515 28.166059 
L 417.515 28.166059 
z
" style="fill: #ff7f0e"/>
    </g>
    <g id="text_18">
     <!-- Pythran -->
     <g transform="translate(439.915 33.766059)scale(0.08 -0.08)">
      <defs>
       <path id="TimesNewRomanPSMT-79" d="M 38 2863 
L 1372 2863 
L 1372 2747 
L 1306 2747 
Q 1166 2747 1095 2686 
Q 1025 2625 1025 2534 
Q 1025 2413 1128 2197 
L 1825 753 
L 2466 2334 
Q 2519 2463 2519 2588 
Q 2519 2644 2497 2672 
Q 2472 2706 2419 2726 
Q 2366 2747 2231 2747 
L 2231 2863 
L 3163 2863 
L 3163 2747 
Q 3047 2734 2984 2696 
Q 2922 2659 2847 2556 
Q 2819 2513 2741 2316 
L 1575 -541 
Q 1406 -956 1132 -1168 
Q 859 -1381 606 -1381 
Q 422 -1381 303 -1275 
Q 184 -1169 184 -1031 
Q 184 -900 270 -820 
Q 356 -741 506 -741 
Q 609 -741 788 -809 
Q 913 -856 944 -856 
Q 1038 -856 1148 -759 
Q 1259 -663 1372 -384 
L 1575 113 
L 547 2272 
Q 500 2369 397 2513 
Q 319 2622 269 2659 
Q 197 2709 38 2747 
L 38 2863 
z
" transform="scale(0.015625)"/>
       <path id="TimesNewRomanPSMT-68" d="M 1041 4444 
L 1041 2350 
Q 1388 2731 1591 2839 
Q 1794 2947 1997 2947 
Q 2241 2947 2416 2812 
Q 2591 2678 2675 2391 
Q 2734 2191 2734 1659 
L 2734 647 
Q 2734 375 2778 275 
Q 2809 200 2884 156 
Q 2959 113 3159 113 
L 3159 0 
L 1753 0 
L 1753 113 
L 1819 113 
Q 2019 113 2097 173 
Q 2175 234 2206 353 
Q 2216 403 2216 647 
L 2216 1659 
Q 2216 2128 2167 2275 
Q 2119 2422 2012 2495 
Q 1906 2569 1756 2569 
Q 1603 2569 1437 2487 
Q 1272 2406 1041 2159 
L 1041 647 
Q 1041 353 1073 281 
Q 1106 209 1195 161 
Q 1284 113 1503 113 
L 1503 0 
L 84 0 
L 84 113 
Q 275 113 384 172 
Q 447 203 484 290 
Q 522 378 522 647 
L 522 3238 
Q 522 3728 498 3840 
Q 475 3953 426 3993 
Q 378 4034 297 4034 
Q 231 4034 84 3984 
L 41 4094 
L 897 4444 
L 1041 4444 
z
" transform="scale(0.015625)"/>
      </defs>
      <use xlink:href="#TimesNewRomanPSMT-50"/>
      <use xlink:href="#TimesNewRomanPSMT-79" x="55.615234"/>
      <use xlink:href="#TimesNewRomanPSMT-74" x="105.615234"/>
      <use xlink:href="#TimesNewRomanPSMT-68" x="133.398438"/>
      <use xlink:href="#TimesNewRomanPSMT-72" x="183.398438"/>
      <use xlink:href="#TimesNewRomanPSMT-61" x="216.699219"/>
      <use xlink:href="#TimesNewRomanPSMT-6e" x="261.083984"/>
     </g>
    </g>
    <g id="patch_57">
     <path d="M 417.515 45.092309 
L 433.515 45.092309 
L 433.515 39.492309 
L 417.515 39.492309 
z
" style="fill: #2ca02c"/>
    </g>
    <g id="text_19">
     <!-- Numba -->
     <g transform="translate(439.915 45.092309)scale(0.08 -0.08)">
      <defs>
       <path id="TimesNewRomanPSMT-62" d="M 984 2369 
Q 1400 2947 1881 2947 
Q 2322 2947 2650 2570 
Q 2978 2194 2978 1541 
Q 2978 778 2472 313 
Q 2038 -88 1503 -88 
Q 1253 -88 995 3 
Q 738 94 469 275 
L 469 3241 
Q 469 3728 445 3840 
Q 422 3953 372 3993 
Q 322 4034 247 4034 
Q 159 4034 28 3984 
L -16 4094 
L 844 4444 
L 984 4444 
L 984 2369 
z
M 984 2169 
L 984 456 
Q 1144 300 1314 220 
Q 1484 141 1663 141 
Q 1947 141 2192 453 
Q 2438 766 2438 1363 
Q 2438 1913 2192 2208 
Q 1947 2503 1634 2503 
Q 1469 2503 1303 2419 
Q 1178 2356 984 2169 
z
" transform="scale(0.015625)"/>
      </defs>
      <use xlink:href="#TimesNewRomanPSMT-4e"/>
      <use xlink:href="#TimesNewRomanPSMT-75" x="72.216797"/>
      <use xlink:href="#TimesNewRomanPSMT-6d" x="122.216797"/>
      <use xlink:href="#TimesNewRomanPSMT-62" x="200"/>
      <use xlink:href="#TimesNewRomanPSMT-61" x="250"/>
     </g>
    </g>
    <g id="patch_58">
     <path d="M 417.515 56.403559 
L 433.515 56.403559 
L 433.515 50.803559 
L 417.515 50.803559 
z
" style="fill: #d62728"/>
    </g>
    <g id="text_20">
     <!-- Pyccel (Fortran) -->
     <g transform="translate(439.915 56.403559)scale(0.08 -0.08)">
      <defs>
       <path id="TimesNewRomanPSMT-28" d="M 1988 -1253 
L 1988 -1369 
Q 1516 -1131 1200 -813 
Q 750 -359 506 256 
Q 263 872 263 1534 
Q 263 2503 741 3301 
Q 1219 4100 1988 4444 
L 1988 4313 
Q 1603 4100 1356 3731 
Q 1109 3363 987 2797 
Q 866 2231 866 1616 
Q 866 947 969 400 
Q 1050 -31 1165 -292 
Q 1281 -553 1476 -793 
Q 1672 -1034 1988 -1253 
z
" transform="scale(0.015625)"/>
       <path id="TimesNewRomanPSMT-29" d="M 144 4313 
L 144 4444 
Q 619 4209 934 3891 
Q 1381 3434 1625 2820 
Q 1869 2206 1869 1541 
Q 1869 572 1392 -226 
Q 916 -1025 144 -1369 
L 144 -1253 
Q 528 -1038 776 -670 
Q 1025 -303 1145 264 
Q 1266 831 1266 1447 
Q 1266 2113 1163 2663 
Q 1084 3094 967 3353 
Q 850 3613 656 3853 
Q 463 4094 144 4313 
z
" transform="scale(0.015625)"/>
      </defs>
      <use xlink:href="#TimesNewRomanPSMT-50"/>
      <use xlink:href="#TimesNewRomanPSMT-79" x="55.615234"/>
      <use xlink:href="#TimesNewRomanPSMT-63" x="105.615234"/>
      <use xlink:href="#TimesNewRomanPSMT-63" x="150"/>
      <use xlink:href="#TimesNewRomanPSMT-65" x="194.384766"/>
      <use xlink:href="#TimesNewRomanPSMT-6c" x="238.769531"/>
      <use xlink:href="#TimesNewRomanPSMT-20" x="266.552734"/>
      <use xlink:href="#TimesNewRomanPSMT-28" x="291.552734"/>
      <use xlink:href="#TimesNewRomanPSMT-46" x="324.853516"/>
      <use xlink:href="#TimesNewRomanPSMT-6f" x="380.46875"/>
      <use xlink:href="#TimesNewRomanPSMT-72" x="430.46875"/>
      <use xlink:href="#TimesNewRomanPSMT-74" x="463.769531"/>
      <use xlink:href="#TimesNewRomanPSMT-72" x="491.552734"/>
      <use xlink:href="#TimesNewRomanPSMT-61" x="524.853516"/>
      <use xlink:href="#TimesNewRomanPSMT-6e" x="569.238281"/>
      <use xlink:href="#TimesNewRomanPSMT-29" x="619.238281"/>
     </g>
    </g>
    <g id="patch_59">
     <path d="M 417.515 67.729809 
L 433.515 67.729809 
L 433.515 62.129809 
L 417.515 62.129809 
z
" style="fill: #9467bd"/>
    </g>
    <g id="text_21">
     <!-- Pyccel (C) -->
     <g transform="translate(439.915 67.729809)scale(0.08 -0.08)">
      <use xlink:href="#TimesNewRomanPSMT-50"/>
      <use xlink:href="#TimesNewRomanPSMT-79" x="55.615234"/>
      <use xlink:href="#TimesNewRomanPSMT-63" x="105.615234"/>
      <use xlink:href="#TimesNewRomanPSMT-63" x="150"/>
      <use xlink:href="#TimesNewRomanPSMT-65" x="194.384766"/>
      <use xlink:href="#TimesNewRomanPSMT-6c" x="238.769531"/>
      <use xlink:href="#TimesNewRomanPSMT-20" x="266.552734"/>
      <use xlink:href="#TimesNewRomanPSMT-28" x="291.552734"/>
      <use xlink:href="#TimesNewRomanPSMT-43" x="324.853516"/>
      <use xlink:href="#TimesNewRomanPSMT-29" x="391.552734"/>
     </g>
    </g>
   </g>
  </g>
 </g>
 <defs>
  <clipPath id="p622f6e10b7">
   <rect x="38.255225" y="8.64" width="372.059775" height="80.342117"/>
  </clipPath>
 </defs>
</svg>
